<?xml version="1.0" encoding="utf-8"?>
<!-- Generator: Adobe Illustrator 22.1.0, SVG Export Plug-In . SVG Version: 6.00 Build 0)  -->
<svg version="1.1" id="Layer_1" xmlns="http://www.w3.org/2000/svg" xmlns:xlink="http://www.w3.org/1999/xlink" x="0px" y="0px"
	 viewBox="0 0 256 256" style="enable-background:new 0 0 256 256;" xml:space="preserve">
<style type="text/css">
	.st0{clip-path:url(#SVGID_2_);}
	.st1{clip-path:url(#SVGID_4_);enable-background:new    ;}
	.st2{clip-path:url(#SVGID_6_);}
	.st3{clip-path:url(#SVGID_8_);fill:#FFFFFF;}
	.st4{clip-path:url(#SVGID_10_);}
	.st5{clip-path:url(#SVGID_12_);fill:#C3005A;}
</style>
<g>
	<defs>
		<polygon id="SVGID_1_" points="184.8,0 73.1,0 9.1,0 91.8,256 160,256 246.9,0 		"/>
	</defs>
	<clipPath id="SVGID_2_">
		<use xlink:href="#SVGID_1_"  style="overflow:visible;"/>
	</clipPath>
	<g class="st0">
		<defs>
			<rect id="SVGID_3_" x="-553.1" y="-167.2" width="5561.5" height="22717"/>
		</defs>
		<clipPath id="SVGID_4_">
			<use xlink:href="#SVGID_3_"  style="overflow:visible;"/>
		</clipPath>
		<g class="st1">
			<g>
				<defs>
					<rect id="SVGID_5_" x="-12.4" y="-20.4" width="281.9" height="297.4"/>
				</defs>
				<clipPath id="SVGID_6_">
					<use xlink:href="#SVGID_5_"  style="overflow:visible;"/>
				</clipPath>
				<g class="st2">
					<defs>
						<rect id="SVGID_7_" x="6.9" y="-1.1" width="243.3" height="258.8"/>
					</defs>
					<clipPath id="SVGID_8_">
						<use xlink:href="#SVGID_7_"  style="overflow:visible;"/>
					</clipPath>
					<rect x="-10.2" y="-19.3" class="st3" width="276.3" height="294.6"/>
				</g>
				<g class="st2">
					<defs>
						<path id="SVGID_9_" d="M256.3,1.2c0,0-12.7-2.1-25.7,1.5c-2.1,0.6-8.8,3-14.4,6.8c-3.6,2.4-6.4,5.7-8.6,8.7
							c-7.9,10.4-9.4,24.4-9.4,24.4c-9.3-4.4-25.8-10.9-48.6-10.9c-22.7,0-33.8,10.3-33.8,22.2c0,14.7,13.1,21.2,43.1,32.5
							c41,15,60.3,36.2,60.3,68.7c0,38.6-30,71.4-93.7,71.4c-26.5,0-52.7-6.8-65.8-14v-48.3c14.1,7.2,46.5,19.6,68.9,19.6
							c24.1,0,36.9-9.9,36.9-25c0-14.4-11-22.6-38.9-32.5C88,113,62.9,91.8,62.9,58.3c0-39.3,33.1-69.4,87.8-69.4L256.3,1.2z"/>
					</defs>
					<clipPath id="SVGID_10_">
						<use xlink:href="#SVGID_9_"  style="overflow:visible;"/>
					</clipPath>
					<g class="st4">
						<defs>
							<rect id="SVGID_11_" x="6.9" y="-1.1" width="243.3" height="258.8"/>
						</defs>
						<clipPath id="SVGID_12_">
							<use xlink:href="#SVGID_11_"  style="overflow:visible;"/>
						</clipPath>
						<rect x="40.5" y="-30.4" class="st5" width="235.2" height="276.2"/>
					</g>
				</g>
			</g>
		</g>
	</g>
</g>
</svg>
